<svg width="15" height="15" viewBox="0 0 15 15" fill="none" xmlns="http://www.w3.org/2000/svg">
<g id="ton_symbol (1) 1" clip-path="url(#clip0_270_1134)">
<path id="Vector" d="M7.5 15C11.6421 15 15 11.6421 15 7.5C15 3.35786 11.6421 0 7.5 0C3.35786 0 0 3.35786 0 7.5C0 11.6421 3.35786 15 7.5 15Z" fill="#0098EA"/>
<path id="Vector_2" d="M10.0608 4.18604H4.9389C3.99717 4.18604 3.40028 5.20188 3.87407 6.02311L7.0351 11.5021C7.24138 11.8598 7.75832 11.8598 7.96459 11.5021L11.1263 6.02311C11.5994 5.2032 11.0025 4.18604 10.0614 4.18604H10.0608ZM7.03253 9.85901L6.34411 8.52666L4.68302 5.55578C4.57344 5.36562 4.70879 5.12195 4.93826 5.12195H7.03189V9.85965L7.03253 9.85901ZM10.3154 5.55513L8.65494 8.5273L7.96652 9.85901V5.12131H10.0601C10.2896 5.12131 10.425 5.36498 10.3154 5.55513Z" fill="white"/>
</g>
<defs>
<clipPath id="clip0_270_1134">
<rect width="15" height="15" fill="white"/>
</clipPath>
</defs>
</svg>
