<svg width="20" height="20" viewBox="0 0 20 20" fill="none" xmlns="http://www.w3.org/2000/svg">
<g clip-path="url(#clip0_501_128)">
<path d="M4.61536 4.61536H13.8461V13.8461H4.61536V4.61536Z" fill="white"/>
<path fill-rule="evenodd" clip-rule="evenodd" d="M11.0615 1.16148L12.4615 2.56148C12.7462 2.8461 13.1231 2.99995 13.5231 2.99995H15.5C16.2769 2.99995 16.9231 3.59225 16.9923 4.35379L17 4.49995V6.47687C17 6.87687 17.1615 7.25379 17.4385 7.53841L18.8385 8.93841C19.3846 9.48456 19.4231 10.3538 18.9385 10.9461L18.8385 11.0615L17.4385 12.4615C17.1539 12.7461 17 13.123 17 13.523V15.4999C17 16.2769 16.4077 16.923 15.6462 16.9923L15.5 16.9999H13.5231C13.1231 16.9999 12.7462 17.1615 12.4615 17.4384L11.0615 18.8384C10.5154 19.3846 9.64616 19.423 9.05386 18.9384L8.93847 18.8384L7.53847 17.4384C7.25386 17.1538 6.87693 16.9999 6.47693 16.9999H4.50001C3.72309 16.9999 3.07693 16.4076 3.0077 15.6461L3.00001 15.4999V13.523C3.00001 13.123 2.83847 12.7461 2.56155 12.4615L1.16155 11.0615C0.615394 10.5153 0.576933 9.6461 1.06155 9.05379L1.16155 8.93841L2.56155 7.53841C2.84616 7.25379 3.00001 6.87687 3.00001 6.47687V4.49995C3.00001 3.66918 3.66924 2.99995 4.50001 2.99995H6.47693C6.87693 2.99995 7.25386 2.83841 7.53847 2.56148L8.93847 1.16148C9.52309 0.576869 10.4769 0.576869 11.0615 1.16148ZM13.5231 7.35379C13.1923 7.09225 12.7308 7.11533 12.4308 7.39995L12.3539 7.48456L8.93078 11.7615L7.58462 10.4153L7.50001 10.3384C7.17693 10.0923 6.7077 10.1153 6.4077 10.4153C6.1077 10.7153 6.08462 11.1769 6.33078 11.5076L6.4077 11.5923L8.4077 13.5923L8.49232 13.6692C8.81539 13.9153 9.27693 13.8923 9.56924 13.6076L9.64616 13.523L13.6462 8.52302L13.7077 8.43072C13.9154 8.07687 13.8385 7.62302 13.5154 7.35379H13.5231Z" fill="#1C93E3"/>
</g>
<defs>
<clipPath id="clip0_501_128">
<rect width="20" height="20" fill="white"/>
</clipPath>
</defs>
</svg>
